# xmcd
#
# Track frame offsets:
#	150
#	26567
#	68740
#	81339
#	118373
#	171739
#	201579
#	234650
#	263875
#
# Disc length: 4020 seconds
#
# Revision: 0
# Processed by: cddbd v1.5.2PL0 Copyright (c) Steve Scherf et al.
# Submitted via: audiograbber 1.83.01
#
DISCID=8b0fb209
DTITLE=Grateful Dead - 92-03-09 Capital Centre, Landover MD
DYEAR=1900
DGENRE=
TTITLE0=Jack Straw
TTITLE1=West LA Fadeaway
TTITLE2=Me and My Uncle
TTITLE3=Big River
TTITLE4=Row Jimmy
TTITLE5=Cassidy
TTITLE6=Deal
TTITLE7=Victim Or The Crime
TTITLE8=Iko Iko
EXTD=
EXTT0=
EXTT1=
EXTT2=
EXTT3=
EXTT4=
EXTT5=
EXTT6=
EXTT7=
EXTT8=
PLAYORDER=
